<?xml version="1.0" encoding="UTF-8" standalone="no"?>
<!-- Created with Inkscape (http://www.inkscape.org/) -->

<svg
   xmlns:dc="http://purl.org/dc/elements/1.1/"
   xmlns:cc="http://creativecommons.org/ns#"
   xmlns:rdf="http://www.w3.org/1999/02/22-rdf-syntax-ns#"
   xmlns:svg="http://www.w3.org/2000/svg"
   xmlns="http://www.w3.org/2000/svg"
   xmlns:sodipodi="http://sodipodi.sourceforge.net/DTD/sodipodi-0.dtd"
   xmlns:inkscape="http://www.inkscape.org/namespaces/inkscape"
   width="189.22682mm"
   height="189.22682mm"
   viewBox="0 0 189.22682 189.22682"
   version="1.1"
   id="svg8"
   inkscape:version="0.92.4 (5da689c313, 2019-01-14)"
   sodipodi:docname="Night_Folks_Ost.svg"
   inkscape:export-filename="D:\GameDev\logo\Golden Fox.png"
   inkscape:export-xdpi="199"
   inkscape:export-ydpi="199">
  <defs
     id="defs2">
    <pattern
       y="0"
       x="0"
       height="6"
       width="6"
       patternUnits="userSpaceOnUse"
       id="EMFhbasepattern" />
  </defs>
  <sodipodi:namedview
     id="base"
     pagecolor="#ffffff"
     bordercolor="#666666"
     borderopacity="1.0"
     inkscape:pageopacity="0.0"
     inkscape:pageshadow="2"
     inkscape:zoom="1"
     inkscape:cx="188.81231"
     inkscape:cy="326.17806"
     inkscape:document-units="mm"
     inkscape:current-layer="layer3"
     showgrid="false"
     inkscape:snap-intersection-paths="true"
     inkscape:object-paths="true"
     inkscape:snap-midpoints="true"
     inkscape:snap-smooth-nodes="true"
     inkscape:window-width="1920"
     inkscape:window-height="1017"
     inkscape:window-x="-8"
     inkscape:window-y="-8"
     inkscape:window-maximized="1" />
  <metadata
     id="metadata5">
    <rdf:RDF>
      <cc:Work
         rdf:about="">
        <dc:format>image/svg+xml</dc:format>
        <dc:type
           rdf:resource="http://purl.org/dc/dcmitype/StillImage" />
        <dc:title />
      </cc:Work>
    </rdf:RDF>
  </metadata>
  <g
     inkscape:groupmode="layer"
     id="layer3"
     inkscape:label="Layer 2"
     transform="translate(-18.708864,-45.766647)">
    <rect
       style="opacity:1;fill:#343434;fill-opacity:1;fill-rule:nonzero;stroke:none;stroke-width:1;stroke-linecap:round;stroke-linejoin:miter;stroke-miterlimit:4;stroke-dasharray:none;stroke-dashoffset:9.01417255;stroke-opacity:1;paint-order:markers stroke fill"
       id="rect867"
       width="189.22682"
       height="189.22682"
       x="18.708864"
       y="45.766647"
       inkscape:export-xdpi="199"
       inkscape:export-ydpi="199" />
    <g
       id="g957"
       transform="translate(2.2469871,5.7754374)">
      <text
         xml:space="preserve"
         style="font-style:normal;font-variant:normal;font-weight:400;font-size:3.9026041px;line-height:125%;font-family:Calibri;text-align:start;letter-spacing:0px;word-spacing:0px;text-anchor:start;fill:#000000;fill-opacity:1;stroke:none;stroke-width:0.26458332"
         x="120.43759"
         y="187.81822"
         id="text853"><tspan
           style="stroke-width:0.26458332"
           sodipodi:role="line"
           x="120.43759"
           y="187.81822"
           id="tspan851"><tspan
             dx="0"
             dy="0"
             style="font-style:normal;font-variant:normal;font-weight:400;font-size:3.9026041px;font-family:Calibri;fill:#000000;stroke-width:0.26458332"
             id="tspan849"> </tspan></tspan></text>
      <g
         id="flowRoot912"
         style="font-style:normal;font-weight:normal;font-size:18.66666603px;line-height:0.80000001;font-family:sans-serif;text-align:center;letter-spacing:0px;word-spacing:0px;text-anchor:middle;fill:#d4cc7f;fill-opacity:1;stroke:#dad390;stroke-width:2.26771665;stroke-linejoin:miter;stroke-miterlimit:4;stroke-dasharray:none;stroke-opacity:1"
         transform="matrix(0.26458333,0,0,0.26458333,-35.091178,9.6864024)"
         aria-label="NIGHT · FOLKS
">
        <path
           id="path914"
           style="font-style:normal;font-variant:normal;font-weight:300;font-stretch:normal;font-size:53.33333588px;line-height:0.80000001;font-family:Montserrat;-inkscape-font-specification:'Montserrat Light';text-align:center;letter-spacing:15px;text-anchor:middle;fill:#d4cc7f;fill-opacity:1;stroke:#dad390;stroke-width:2.26771665;stroke-linejoin:miter;stroke-miterlimit:4;stroke-dasharray:none;stroke-opacity:1"
           d="m 270.86538,675.2527 v -37.33334 h 2.29334 l 26.61333,33.97334 h -1.22667 v -33.97334 h 2.72 v 37.33334 h -2.24 l -26.66667,-33.97334 h 1.22667 v 33.97334 z"
           inkscape:connector-curvature="0" />
        <path
           id="path916"
           style="font-style:normal;font-variant:normal;font-weight:300;font-stretch:normal;font-size:53.33333588px;line-height:0.80000001;font-family:Montserrat;-inkscape-font-specification:'Montserrat Light';text-align:center;letter-spacing:15px;text-anchor:middle;fill:#d4cc7f;fill-opacity:1;stroke:#dad390;stroke-width:2.26771665;stroke-linejoin:miter;stroke-miterlimit:4;stroke-dasharray:none;stroke-opacity:1"
           d="m 329.30289,675.2527 v -37.33334 h 2.72 v 37.33334 z"
           inkscape:connector-curvature="0" />
        <path
           sodipodi:nodetypes="cscccscccsscccscscscscscccccc"
           inkscape:connector-curvature="0"
           id="path918"
           style="font-style:normal;font-variant:normal;font-weight:300;font-stretch:normal;font-size:53.33333588px;line-height:0.80000001;font-family:Montserrat;-inkscape-font-specification:'Montserrat Light';text-align:center;letter-spacing:15px;text-anchor:middle;fill:#d4cc7f;fill-opacity:1;stroke:#dad390;stroke-width:2.26771665;stroke-linejoin:miter;stroke-miterlimit:4;stroke-dasharray:none;stroke-opacity:1"
           d="m 383.28539,674.34603 c -2.31111,0.78222 -4.74667,1.17333 -7.30667,1.17333 -2.80889,0 -5.40444,-0.46222 -7.78667,-1.38666 -2.38222,-0.96 -4.46222,-2.29333 -6.24,-4 -1.74222,-1.70667 -3.09333,-3.69778 -4.05333,-5.97334 -0.96,-2.31111 -1.44,-4.83555 -1.44,-7.57333 0,-2.73778 0.48,-5.24445 1.44,-7.52 0.96,-2.31111 2.32889,-4.32 4.10667,-6.02667 1.77777,-1.70667 3.83999,-3.02222 6.18666,-3.94666 2.38223,-0.96 4.99556,-1.44 7.84,-1.44 2.70223,0 5.20889,0.42667 7.52,1.28 2.31111,0.85333 4.28445,2.13333 5.92,3.84 l -1.70666,1.81333 c -1.63556,-1.6 -3.43112,-2.73778 -5.38667,-3.41333 -1.92,-0.67556 -4.01778,-1.01334 -6.29333,-1.01334 -2.41778,0 -4.65778,0.40889 -6.72,1.22667 -2.06223,0.81778 -3.85778,1.97334 -5.38667,3.46667 -1.52889,1.49333 -2.72,3.23555 -3.57333,5.22666 -0.81778,1.99111 -1.22667,4.16 -1.22667,6.50667 0,2.34667 0.40889,4.51556 1.22667,6.50667 0.85333,1.99111 2.04444,3.73333 3.57333,5.22666 1.52889,1.49333 3.32444,2.64889 5.38667,3.46667 2.06222,0.81778 4.30222,1.22667 6.72,1.22667 2.20444,0 4.28444,-0.33778 6.24,-1.01334 1.56948,-0.5325 3.02851,-1.34115 4.38685,-2.47283 l -0.0135,-12.7805 h 2.61333 l 0.0351,13.95575 c -1.70629,1.61758 -3.71517,2.82647 -6.06184,3.64425 z" />
        <path
           id="path920"
           style="font-style:normal;font-variant:normal;font-weight:300;font-stretch:normal;font-size:53.33333588px;line-height:0.80000001;font-family:Montserrat;-inkscape-font-specification:'Montserrat Light';text-align:center;letter-spacing:15px;text-anchor:middle;fill:#d4cc7f;fill-opacity:1;stroke:#dad390;stroke-width:2.26771665;stroke-linejoin:miter;stroke-miterlimit:4;stroke-dasharray:none;stroke-opacity:1"
           d="m 443.96205,637.91936 h 2.72 v 37.33334 h -2.72 z m -24.96,37.33334 h -2.72 v -37.33334 h 2.72 z m 25.28,-17.76 h -25.6 v -2.4 h 25.6 z"
           inkscape:connector-curvature="0" />
        <path
           id="path922"
           style="font-style:normal;font-variant:normal;font-weight:300;font-stretch:normal;font-size:53.33333588px;line-height:0.80000001;font-family:Montserrat;-inkscape-font-specification:'Montserrat Light';text-align:center;letter-spacing:15px;text-anchor:middle;fill:#d4cc7f;fill-opacity:1;stroke:#dad390;stroke-width:2.26771665;stroke-linejoin:miter;stroke-miterlimit:4;stroke-dasharray:none;stroke-opacity:1"
           d="m 481.86622,675.2527 v -34.88 h -13.44 v -2.45334 h 29.6 v 2.45334 h -13.44 v 34.88 z"
           inkscape:connector-curvature="0" />
        <path
           id="path924"
           style="font-style:normal;font-variant:normal;font-weight:300;font-stretch:normal;font-size:53.33333588px;line-height:0.80000001;font-family:Montserrat;-inkscape-font-specification:'Montserrat Light';text-align:center;letter-spacing:15px;text-anchor:middle;fill:#d4cc7f;fill-opacity:1;stroke:#dad390;stroke-width:2.26771665;stroke-linejoin:miter;stroke-miterlimit:4;stroke-dasharray:none;stroke-opacity:1"
           d="m 548.3629,663.2527 q -0.90666,0 -1.6,-0.64 -0.64,-0.69334 -0.64,-1.65334 0,-1.01333 0.64,-1.65333 0.69334,-0.64 1.6,-0.64 0.96,0 1.6,0.64 0.64,0.64 0.64,1.65333 0,0.96 -0.64,1.65334 -0.64,0.64 -1.6,0.64 z"
           inkscape:connector-curvature="0" />
        <path
           id="path926"
           style="font-style:normal;font-variant:normal;font-weight:300;font-stretch:normal;font-size:53.33333588px;line-height:0.80000001;font-family:Montserrat;-inkscape-font-specification:'Montserrat Light';text-align:center;letter-spacing:15px;text-anchor:middle;fill:#d4cc7f;fill-opacity:1;stroke:#dad390;stroke-width:2.26771665;stroke-linejoin:miter;stroke-miterlimit:4;stroke-dasharray:none;stroke-opacity:1"
           d="m 607.43207,656.31936 h 20.21333 v 2.45334 h -20.21333 z m 0.32,18.93334 h -2.72 v -37.33334 h 24.96 v 2.45334 h -22.24 z"
           inkscape:connector-curvature="0" />
        <path
           id="path928"
           style="font-style:normal;font-variant:normal;font-weight:300;font-stretch:normal;font-size:53.33333588px;line-height:0.80000001;font-family:Montserrat;-inkscape-font-specification:'Montserrat Light';text-align:center;letter-spacing:15px;text-anchor:middle;fill:#d4cc7f;fill-opacity:1;stroke:#dad390;stroke-width:2.26771665;stroke-linejoin:miter;stroke-miterlimit:4;stroke-dasharray:none;stroke-opacity:1"
           d="m 668.99707,675.51936 q -4.16,0 -7.73333,-1.38666 -3.52,-1.44 -6.18667,-4 -2.61333,-2.61334 -4.05333,-6.02667 -1.44,-3.46667 -1.44,-7.52 0,-4.05333 1.44,-7.46667 1.44,-3.46666 4.05333,-6.02666 2.66667,-2.61334 6.18667,-4 3.57333,-1.44 7.73333,-1.44 4.16,0 7.68,1.44 3.57333,1.38666 6.18667,3.94666 2.61333,2.56 4.05333,6.02667 1.49333,3.41333 1.49333,7.52 0,4.10667 -1.49333,7.57333 -1.44,3.41334 -4.05333,5.97334 -2.61334,2.56 -6.18667,4 -3.52,1.38666 -7.68,1.38666 z m 0,-2.50666 q 3.57333,0 6.61333,-1.22667 3.04,-1.22667 5.28,-3.46667 2.24,-2.24 3.46667,-5.22666 1.28,-2.98667 1.28,-6.50667 0,-3.57333 -1.28,-6.50667 -1.22667,-2.98666 -3.46667,-5.22666 -2.24,-2.24 -5.28,-3.46667 -3.04,-1.22667 -6.61333,-1.22667 -3.57333,0 -6.61333,1.22667 -3.04,1.22667 -5.33334,3.46667 -2.24,2.24 -3.52,5.22666 -1.22666,2.93334 -1.22666,6.50667 0,3.52 1.22666,6.50667 1.28,2.98666 3.52,5.22666 2.29334,2.24 5.33334,3.46667 3.04,1.22667 6.61333,1.22667 z"
           inkscape:connector-curvature="0" />
        <path
           id="path930"
           style="font-style:normal;font-variant:normal;font-weight:300;font-stretch:normal;font-size:53.33333588px;line-height:0.80000001;font-family:Montserrat;-inkscape-font-specification:'Montserrat Light';text-align:center;letter-spacing:15px;text-anchor:middle;fill:#d4cc7f;fill-opacity:1;stroke:#dad390;stroke-width:2.26771665;stroke-linejoin:miter;stroke-miterlimit:4;stroke-dasharray:none;stroke-opacity:1"
           d="m 712.84457,675.2527 v -37.33334 h 2.72 v 34.88 h 21.49333 v 2.45334 z"
           inkscape:connector-curvature="0" />
        <path
           id="path932"
           style="font-style:normal;font-variant:normal;font-weight:300;font-stretch:normal;font-size:53.33333588px;line-height:0.80000001;font-family:Montserrat;-inkscape-font-specification:'Montserrat Light';text-align:center;letter-spacing:15px;text-anchor:middle;fill:#d4cc7f;fill-opacity:1;stroke:#dad390;stroke-width:2.26771665;stroke-linejoin:miter;stroke-miterlimit:4;stroke-dasharray:none;stroke-opacity:1"
           d="m 761.44124,665.8127 -0.10667,-3.41334 23.78667,-24.48 h 3.30666 l -16.64,17.22667 -1.54666,1.65333 z m -2.34667,9.44 v -37.33334 h 2.72 v 37.33334 z m 27.14667,0 -16.8,-19.2 1.86666,-1.97334 18.24,21.17334 z"
           inkscape:connector-curvature="0" />
        <path
           id="path934"
           style="font-style:normal;font-variant:normal;font-weight:300;font-stretch:normal;font-size:53.33333588px;line-height:0.80000001;font-family:Montserrat;-inkscape-font-specification:'Montserrat Light';text-align:center;letter-spacing:15px;text-anchor:middle;fill:#d4cc7f;fill-opacity:1;stroke:#dad390;stroke-width:2.26771665;stroke-linejoin:miter;stroke-miterlimit:4;stroke-dasharray:none;stroke-opacity:1"
           d="m 820.57459,675.51936 q -4.16,0 -7.89333,-1.38666 -3.68,-1.44 -5.70667,-3.68 l 1.22667,-2.02667 q 1.92,1.97333 5.22666,3.36 3.36,1.33333 7.09334,1.33333 3.73333,0 6.08,-0.96 2.4,-1.01333 3.52,-2.66666 1.17333,-1.65334 1.17333,-3.68 0,-2.4 -1.28,-3.84 -1.28,-1.44 -3.36,-2.29334 -2.08,-0.85333 -4.53333,-1.44 -2.45334,-0.58666 -4.96,-1.22666 -2.50667,-0.69334 -4.58667,-1.76 -2.08,-1.06667 -3.36,-2.88 -1.22667,-1.86667 -1.22667,-4.8 0,-2.66667 1.38667,-4.90667 1.38667,-2.24 4.32,-3.62667 2.93333,-1.38666 7.52,-1.38666 3.09333,0 6.08,0.90666 3.04,0.90667 5.17333,2.45334 l -1.01333,2.18666 q -2.34667,-1.6 -5.06667,-2.34666 -2.66666,-0.8 -5.17333,-0.8 -3.57333,0 -5.92,1.01333 -2.34667,1.01333 -3.46667,2.72 -1.12,1.65333 -1.12,3.73333 0,2.4 1.22667,3.84 1.28,1.44 3.36,2.29334 2.08,0.85333 4.58667,1.44 2.50666,0.58666 4.96,1.28 2.45333,0.64 4.53333,1.70666 2.08,1.06667 3.36,2.88 1.28,1.81334 1.28,4.69334 0,2.61333 -1.44,4.90666 -1.44,2.24 -4.42667,3.62667 -2.93333,1.33333 -7.57333,1.33333 z"
           inkscape:connector-curvature="0" />
      </g>
      <flowRoot
         xml:space="preserve"
         id="flowRoot852"
         style="font-style:normal;font-weight:normal;font-size:18.66666603px;line-height:0.80000001;font-family:sans-serif;text-align:center;letter-spacing:0px;word-spacing:0px;text-anchor:middle;fill:#baa562;fill-opacity:1;stroke:#d4cc7e;stroke-width:0;stroke-miterlimit:4;stroke-dasharray:none;stroke-opacity:1"
         transform="matrix(0.26458333,0,0,0.26458333,-35.091177,9.685814)"><flowRegion
           id="flowRegion846"
           style="line-height:0.80000001;text-align:center;text-anchor:middle;fill:#baa562;fill-opacity:1;stroke:#d4cc7e;stroke-width:0;stroke-miterlimit:4;stroke-dasharray:none;stroke-opacity:1"><rect
             id="rect844"
             width="783.96875"
             height="338.18423"
             x="158.57143"
             y="638.23395"
             style="line-height:0.80000001;text-align:center;text-anchor:middle;fill:#baa562;fill-opacity:1;stroke:#d4cc7e;stroke-width:0;stroke-miterlimit:4;stroke-dasharray:none;stroke-opacity:1" /></flowRegion><flowPara
           id="flowPara848"
           style="font-style:normal;font-variant:normal;font-weight:300;font-stretch:normal;font-size:53.33333588px;line-height:0.80000001;font-family:Montserrat;-inkscape-font-specification:'Montserrat Light';text-align:center;letter-spacing:15px;text-anchor:middle;fill:#baa562;fill-opacity:1;stroke:#baa562;stroke-width:0;stroke-miterlimit:4;stroke-dasharray:none;stroke-opacity:1">NIGHT · FOLKS</flowPara><flowPara
           style="font-style:normal;font-variant:normal;font-weight:300;font-stretch:normal;font-size:112px;line-height:0.80000001;font-family:Montserrat;-inkscape-font-specification:'Montserrat Light';text-align:center;letter-spacing:6px;text-anchor:middle;fill:#baa562;fill-opacity:1;stroke:#baa562;stroke-width:0;stroke-miterlimit:4;stroke-dasharray:none;stroke-opacity:1"
           id="flowPara850" /></flowRoot>    </g>
  </g>
  <g
     inkscape:label="fox kopia"
     id="g864"
     inkscape:groupmode="layer"
     transform="translate(-18.708864,-45.766647)">
    <g
       transform="rotate(-21.130392,106.3503,174.82412)"
       style="stroke:#d9c658;stroke-width:1;stroke-miterlimit:4;stroke-dasharray:none;stroke-opacity:1"
       id="g862">
      <path
         style="fill:none;stroke:#d9c658;stroke-width:1;stroke-linecap:butt;stroke-linejoin:miter;stroke-miterlimit:4;stroke-dasharray:none;stroke-opacity:1"
         d="m 91.423902,120.57081 -9.21408,-6.51129 16.252975,-41.388391 8.126483,34.017861 -15.165378,13.88182 -8.069241,25.47138 52.321189,6.32723 18.91641,21.78832 12.28423,3.21279 -20.88524,-27.5027 -6.18446,-21.71244 -35.73356,-31.998704"
         id="path850"
         inkscape:connector-curvature="0"
         sodipodi:nodetypes="cccccccccccc" />
      <path
         style="fill:none;stroke:#d9c658;stroke-width:1;stroke-linecap:butt;stroke-linejoin:miter;stroke-miterlimit:4;stroke-dasharray:none;stroke-opacity:1"
         d="m 114.65863,122.60663 23.11881,23.25245 -2.6727,-13.36348 z"
         id="path852"
         inkscape:connector-curvature="0" />
      <path
         style="fill:none;stroke:#d9c658;stroke-width:1;stroke-linecap:butt;stroke-linejoin:miter;stroke-miterlimit:4;stroke-dasharray:none;stroke-opacity:1"
         d="m 95.112916,147.46412 -0.420873,18.06496 26.117717,-2.97289 31.3136,21.43429 14.75313,-6.61995"
         id="path854"
         inkscape:connector-curvature="0"
         sodipodi:nodetypes="ccccc" />
      <path
         style="fill:none;stroke:#d9c658;stroke-width:1;stroke-linecap:butt;stroke-linejoin:miter;stroke-miterlimit:4;stroke-dasharray:none;stroke-opacity:1"
         d="m 126.03934,159.20409 18.70672,15.35832 4.19117,4.88156 3.4183,-1.36307 4.97223,3.57429"
         id="path856"
         inkscape:connector-curvature="0"
         sodipodi:nodetypes="ccccc" />
      <path
         style="fill:none;stroke:#d9c658;stroke-width:1;stroke-linecap:butt;stroke-linejoin:miter;stroke-miterlimit:4;stroke-dasharray:none;stroke-opacity:1"
         d="m 103.20664,92.529109 14.9579,-19.619055 -2.87189,33.293396"
         id="path858"
         inkscape:connector-curvature="0"
         sodipodi:nodetypes="ccc" />
      <path
         style="fill:none;stroke:#d9c658;stroke-width:1;stroke-linecap:butt;stroke-linejoin:miter;stroke-miterlimit:4;stroke-dasharray:none;stroke-opacity:1"
         d="m 156.43387,163.61918 -4.09632,8.1613"
         id="path860"
         inkscape:connector-curvature="0"
         sodipodi:nodetypes="cc" />
    </g>
  </g>
</svg>
